<?xml version="1.0" standalone="no"?>
<!DOCTYPE svg PUBLIC "-//W3C//DTD SVG 20010904//EN"
 "http://www.w3.org/TR/2001/REC-SVG-20010904/DTD/svg10.dtd">
<svg version="1.0" xmlns="http://www.w3.org/2000/svg"
 width="1920.000000pt" height="1920.000000pt" viewBox="0 0 1920.000000 1920.000000"
 preserveAspectRatio="xMidYMid meet">
<metadata>
Created by potrace 1.14, written by Peter Selinger 2001-2017
</metadata>
<g transform="translate(0.000000,1920.000000) scale(0.100000,-0.100000)"
fill="#000000" stroke="none">
<path d="M8784 18595 c-4 -8 -10 -13 -14 -10 -5 3 -11 1 -15 -5 -3 -5 -19 -10
-35 -10 -16 0 -75 -9 -132 -19 -57 -11 -128 -23 -158 -26 -30 -3 -62 -8 -70
-10 -8 -2 -40 -7 -70 -10 -148 -16 -221 -28 -286 -45 -40 -11 -127 -29 -195
-40 -119 -21 -242 -49 -394 -89 -38 -11 -113 -29 -165 -41 -52 -12 -108 -29
-124 -37 -16 -8 -85 -30 -155 -48 -136 -36 -301 -90 -421 -138 -41 -16 -119
-44 -172 -62 -54 -18 -113 -42 -131 -54 -18 -11 -74 -33 -125 -50 -50 -16
-104 -38 -120 -49 -15 -10 -58 -31 -97 -46 -38 -16 -102 -45 -141 -66 -39 -20
-87 -43 -107 -49 -20 -7 -52 -23 -72 -37 -20 -13 -63 -35 -96 -49 -32 -13 -72
-33 -88 -45 -17 -11 -67 -39 -113 -61 -46 -23 -90 -47 -98 -54 -8 -6 -44 -28
-80 -47 -54 -29 -163 -91 -206 -116 -6 -4 -35 -23 -65 -43 -127 -85 -175 -116
-234 -154 -34 -22 -81 -53 -103 -70 -22 -16 -70 -50 -107 -75 -36 -25 -89 -63
-116 -85 -28 -22 -67 -51 -88 -65 -60 -42 -164 -122 -232 -179 -35 -29 -82
-69 -104 -87 -260 -217 -364 -312 -606 -553 -208 -208 -374 -386 -484 -520
-33 -40 -101 -121 -150 -179 -50 -59 -106 -129 -125 -155 -41 -56 -101 -137
-148 -199 -65 -85 -131 -178 -143 -200 -7 -13 -26 -40 -43 -61 -17 -21 -42
-58 -56 -82 -14 -24 -43 -70 -64 -102 -97 -144 -182 -284 -231 -378 -20 -38
-43 -77 -50 -85 -15 -18 -65 -112 -65 -123 0 -4 -17 -34 -38 -65 -21 -31 -48
-85 -61 -120 -13 -34 -28 -65 -33 -68 -9 -6 -151 -295 -163 -335 -4 -13 -27
-62 -50 -109 -24 -47 -46 -100 -49 -119 -3 -19 -22 -66 -42 -105 -20 -39 -47
-105 -59 -146 -13 -41 -39 -111 -58 -155 -19 -44 -42 -107 -51 -141 -9 -34
-27 -87 -42 -119 -14 -33 -37 -108 -50 -169 -14 -61 -34 -131 -45 -156 -26
-63 -143 -532 -164 -660 -9 -58 -28 -150 -42 -205 -13 -55 -31 -149 -38 -210
-15 -120 -48 -344 -69 -471 -7 -45 -20 -92 -29 -105 -16 -21 -17 -95 -17 -839
0 -757 1 -817 17 -840 10 -14 17 -26 16 -27 -2 -2 -1 -8 1 -15 5 -17 34 -200
42 -263 3 -27 8 -59 10 -70 2 -11 13 -90 24 -175 12 -85 32 -200 45 -255 13
-55 31 -145 40 -200 20 -119 140 -601 164 -659 10 -23 28 -84 40 -136 25 -107
48 -179 61 -195 4 -5 20 -51 34 -100 14 -50 37 -117 52 -150 14 -33 39 -99 55
-147 16 -48 44 -118 62 -155 19 -38 40 -90 47 -118 7 -27 30 -81 51 -120 20
-38 44 -90 52 -115 8 -25 30 -72 49 -105 19 -33 40 -76 48 -95 21 -52 149
-303 164 -320 7 -8 23 -39 35 -67 12 -29 33 -70 47 -90 14 -21 37 -59 50 -85
13 -26 42 -75 64 -109 22 -34 40 -67 40 -72 0 -6 17 -33 38 -61 21 -28 57 -83
81 -123 23 -40 49 -77 57 -84 8 -6 14 -16 14 -21 0 -9 58 -98 70 -108 4 -3 29
-38 56 -79 27 -41 60 -91 73 -110 13 -20 42 -58 65 -86 23 -27 50 -63 61 -80
19 -31 87 -118 130 -170 14 -16 57 -68 96 -115 97 -118 191 -230 210 -249 9
-9 54 -59 100 -111 107 -121 458 -474 569 -571 47 -41 96 -86 110 -99 39 -38
150 -133 175 -150 12 -8 35 -27 51 -42 40 -36 165 -140 190 -158 12 -8 50 -37
85 -63 35 -27 77 -58 93 -70 16 -12 44 -33 62 -47 29 -22 86 -63 204 -145 19
-14 62 -43 95 -65 33 -22 65 -44 71 -48 6 -5 37 -26 70 -47 32 -21 84 -56 116
-77 31 -21 60 -38 65 -38 5 0 40 -21 78 -46 39 -25 80 -50 93 -55 13 -5 49
-26 80 -47 31 -21 82 -49 112 -62 30 -13 64 -31 75 -40 23 -19 452 -231 526
-260 28 -11 74 -33 102 -49 29 -15 77 -36 107 -46 30 -9 87 -32 125 -50 39
-18 99 -43 135 -55 59 -20 154 -57 205 -80 11 -4 57 -20 103 -34 45 -14 103
-35 127 -46 25 -11 66 -25 93 -30 52 -10 154 -40 218 -63 23 -8 106 -32 185
-52 79 -20 164 -43 189 -51 25 -9 117 -29 205 -45 88 -17 203 -41 255 -54 52
-13 113 -26 135 -29 297 -40 522 -80 533 -95 12 -15 101 -16 1012 -19 950 -2
1001 -1 1018 16 19 19 183 49 532 97 25 4 99 19 165 35 66 16 161 35 210 44
50 8 145 29 210 47 66 17 170 43 230 59 61 15 144 39 185 54 41 14 111 34 155
45 44 12 121 36 170 55 50 19 124 46 165 60 124 41 332 121 385 148 28 14 73
32 100 41 28 8 87 33 131 56 45 22 85 41 89 41 9 0 267 124 305 146 14 8 66
35 115 60 50 25 129 66 176 92 157 85 384 222 561 337 89 58 89 58 139 87 25
15 56 39 69 53 13 14 27 25 32 25 8 0 172 118 314 225 29 22 72 55 96 72 24
18 59 46 78 63 19 16 75 63 124 102 187 153 360 312 607 558 228 228 490 508
530 567 14 20 31 41 149 182 31 36 62 75 70 87 39 55 112 152 137 182 27 32
66 87 159 222 24 36 53 76 63 90 10 14 49 72 86 130 38 58 90 138 117 178 26
41 48 78 48 83 0 5 18 36 40 68 22 32 40 63 40 68 0 5 21 40 46 78 25 39 55
93 67 120 11 28 33 68 47 90 26 39 160 308 160 320 0 4 16 34 36 68 19 33 42
81 51 106 8 25 32 80 53 121 21 41 45 98 53 126 8 27 29 78 46 112 17 33 44
101 60 149 16 48 39 111 51 138 13 28 37 95 55 150 18 55 43 125 54 155 12 30
28 85 36 121 8 36 30 113 49 170 19 58 47 154 61 214 14 61 35 141 46 178 11
37 33 140 50 229 16 89 38 198 49 242 19 80 33 161 45 265 4 30 8 61 10 70 1
9 6 39 9 66 25 187 49 313 67 337 18 26 19 56 19 904 0 831 -1 877 -18 902
-22 32 -62 261 -102 577 -6 50 -20 119 -30 155 -10 36 -29 124 -40 195 -12 72
-40 200 -62 285 -22 85 -48 191 -58 235 -10 44 -30 112 -45 150 -15 39 -37
115 -50 170 -12 55 -33 123 -45 150 -12 28 -35 94 -51 149 -17 54 -41 119 -53
145 -13 26 -34 80 -46 121 -12 41 -39 109 -60 150 -20 41 -45 101 -54 133 -9
32 -32 86 -50 120 -19 34 -42 85 -52 112 -10 28 -32 75 -49 105 -17 30 -41 81
-54 113 -13 32 -32 68 -41 80 -10 13 -29 51 -43 85 -14 34 -38 81 -54 105 -16
23 -44 73 -61 112 -18 38 -39 77 -46 85 -8 8 -27 40 -42 70 -16 30 -44 77 -62
105 -19 27 -38 60 -42 71 -11 28 -187 298 -282 433 -40 57 -89 127 -108 156
-19 28 -54 76 -78 106 -24 30 -67 86 -96 126 -61 82 -97 127 -182 227 -33 39
-67 81 -75 93 -9 13 -96 112 -195 220 -207 229 -442 464 -634 637 -74 66 -154
138 -177 159 -23 22 -55 49 -71 61 -16 11 -73 57 -127 101 -151 124 -410 319
-515 388 -30 19 -71 49 -90 64 -19 16 -53 40 -75 53 -22 13 -101 64 -175 113
-74 49 -145 93 -158 98 -13 5 -42 22 -65 37 -23 16 -67 42 -97 58 -30 16 -68
38 -85 50 -16 12 -61 36 -98 53 -38 17 -88 45 -112 61 -24 17 -47 30 -51 30
-4 0 -98 45 -209 100 -111 55 -221 107 -246 115 -24 9 -67 29 -96 45 -28 16
-82 39 -120 51 -37 12 -87 32 -109 45 -23 13 -88 39 -145 57 -57 19 -129 46
-159 60 -30 14 -94 36 -142 50 -47 14 -108 35 -135 47 -26 11 -93 32 -149 45
-55 13 -125 33 -155 45 -67 26 -549 145 -644 160 -84 12 -145 25 -245 50 -67
17 -120 25 -285 45 -27 3 -77 10 -110 15 -33 5 -80 12 -105 15 -25 4 -76 13
-113 21 -38 8 -81 14 -97 14 -16 0 -32 5 -35 10 -4 6 -10 8 -15 5 -4 -3 -13 2
-20 10 -11 13 -118 15 -827 15 -713 0 -814 -2 -819 -15z m3716 -3300 c70 -8
164 -28 215 -45 50 -16 119 -36 155 -45 36 -9 96 -34 133 -56 38 -21 73 -39
78 -39 23 0 89 -41 314 -196 88 -61 351 -314 415 -399 53 -71 71 -95 122 -162
26 -34 59 -86 74 -115 14 -29 34 -62 44 -73 19 -21 160 -315 160 -334 0 -6 15
-43 34 -83 32 -70 76 -200 76 -229 0 -8 12 -41 25 -74 14 -33 39 -130 56 -215
16 -85 36 -182 44 -215 21 -86 41 -223 65 -430 12 -99 33 -245 48 -325 25
-132 27 -166 27 -380 -1 -140 -5 -257 -12 -290 -7 -30 -28 -133 -47 -228 -20
-95 -48 -212 -62 -260 -15 -48 -40 -132 -56 -187 -16 -55 -37 -116 -47 -135
-11 -19 -33 -74 -49 -122 -17 -47 -42 -108 -55 -135 -13 -26 -34 -77 -46 -113
-12 -35 -40 -100 -61 -145 -20 -44 -45 -106 -54 -139 -10 -32 -31 -82 -47
-111 -16 -29 -38 -82 -48 -117 -10 -34 -32 -92 -49 -128 -32 -68 -52 -125 -72
-200 -7 -25 -23 -68 -36 -96 -13 -28 -35 -97 -49 -153 -14 -57 -36 -124 -49
-150 -13 -25 -31 -80 -41 -121 -10 -41 -32 -122 -51 -180 -18 -58 -47 -170
-63 -250 -17 -80 -41 -185 -54 -235 -30 -110 -31 -116 -59 -345 -18 -158 -21
-222 -17 -440 2 -140 4 -421 3 -625 0 -334 -3 -392 -27 -600 -15 -126 -29
-257 -33 -290 -10 -103 -44 -326 -65 -430 -11 -55 -29 -152 -40 -215 -11 -63
-35 -160 -53 -215 -19 -55 -44 -134 -56 -175 -11 -41 -32 -95 -44 -120 -13
-25 -27 -56 -31 -70 -11 -39 -151 -317 -175 -347 -12 -16 -39 -55 -61 -88 -59
-90 -84 -123 -153 -201 -72 -83 -231 -234 -245 -234 -5 0 -28 -16 -51 -35 -23
-19 -79 -53 -123 -76 -45 -23 -86 -44 -92 -49 -50 -38 -285 -64 -367 -41 -24
7 -68 28 -98 46 -30 19 -77 47 -105 64 -84 50 -214 187 -304 318 -24 35 -47
65 -52 69 -5 3 -19 24 -30 47 -12 23 -37 67 -56 97 -52 82 -137 240 -158 296
-10 27 -33 70 -50 96 -18 25 -37 67 -44 92 -6 25 -29 81 -51 123 -22 43 -48
105 -59 138 -10 33 -31 87 -46 120 -15 33 -42 101 -60 150 -18 50 -41 113 -53
140 -19 48 -60 166 -124 360 -45 137 -124 342 -162 420 -19 39 -40 88 -47 110
-6 22 -24 63 -39 90 -15 28 -40 79 -55 114 -15 36 -43 90 -63 122 -21 32 -50
79 -65 106 -113 195 -257 360 -398 456 -59 39 -78 47 -117 47 -69 0 -143 -44
-260 -155 -58 -54 -149 -167 -197 -244 -16 -27 -42 -66 -56 -87 -52 -78 -126
-210 -143 -254 -10 -25 -31 -68 -47 -97 -16 -28 -41 -84 -54 -124 -14 -40 -31
-79 -39 -88 -17 -20 -112 -278 -236 -641 -51 -150 -113 -312 -169 -445 -21
-49 -46 -115 -56 -145 -9 -30 -30 -78 -46 -106 -15 -28 -40 -83 -53 -123 -14
-41 -33 -83 -44 -95 -10 -11 -30 -48 -43 -81 -13 -33 -48 -101 -76 -152 -29
-51 -53 -96 -53 -101 0 -5 -10 -22 -22 -37 -13 -15 -39 -56 -58 -91 -52 -94
-174 -248 -272 -344 -64 -63 -116 -102 -199 -150 -110 -63 -113 -64 -200 -68
-130 -6 -206 10 -337 75 -62 30 -125 66 -140 78 -15 12 -43 32 -62 43 -34 21
-170 141 -199 176 -9 10 -38 42 -65 70 -27 28 -64 74 -83 101 -81 118 -104
152 -131 190 -34 47 -151 285 -181 368 -12 32 -27 68 -35 80 -8 12 -24 56 -36
97 -12 41 -36 120 -55 175 -18 55 -41 145 -50 200 -9 55 -32 181 -50 280 -43
231 -71 477 -111 970 -12 147 -14 259 -10 420 20 708 20 700 -2 875 -12 91
-24 194 -28 230 -6 61 -46 238 -57 257 -3 5 -19 76 -36 159 -16 82 -46 198
-65 256 -20 58 -42 137 -50 176 -8 38 -26 93 -40 121 -15 28 -36 92 -47 143
-12 50 -33 116 -46 147 -27 61 -42 104 -68 195 -9 33 -29 85 -45 115 -15 31
-40 94 -54 141 -15 46 -36 96 -46 110 -20 29 -45 88 -55 135 -3 16 -24 66 -45
110 -21 44 -49 110 -61 145 -12 36 -34 90 -50 121 -15 31 -38 87 -50 125 -12
38 -32 90 -45 116 -13 25 -32 79 -43 120 -11 41 -34 114 -50 164 -17 50 -44
160 -61 245 -17 85 -40 185 -52 222 -20 62 -21 71 -8 94 8 14 28 35 43 47 26
19 44 21 211 24 205 4 255 -4 297 -49 21 -23 28 -42 34 -96 10 -97 50 -286 65
-308 13 -19 39 -100 51 -160 7 -33 24 -85 39 -115 15 -30 39 -93 55 -140 15
-47 40 -112 55 -145 16 -33 38 -85 50 -115 12 -30 37 -86 55 -125 18 -38 38
-88 45 -110 7 -22 26 -67 41 -100 16 -34 38 -89 49 -124 11 -35 38 -105 59
-155 21 -50 47 -118 56 -151 10 -33 31 -87 46 -120 16 -33 35 -92 44 -130 9
-39 29 -104 45 -145 16 -41 41 -120 56 -175 14 -55 38 -138 54 -185 28 -86 63
-222 75 -295 4 -22 20 -78 35 -125 16 -47 33 -125 40 -175 6 -49 22 -139 35
-200 47 -225 49 -251 46 -940 -1 -501 2 -695 13 -845 18 -239 42 -442 62 -535
8 -38 26 -140 39 -225 33 -207 40 -240 70 -310 14 -33 32 -93 39 -133 8 -39
35 -116 60 -169 25 -54 46 -103 46 -110 0 -7 14 -35 30 -63 16 -27 44 -79 63
-115 19 -36 47 -76 61 -89 14 -14 26 -29 26 -34 0 -28 160 -195 260 -271 76
-58 92 -66 132 -66 28 0 44 11 105 76 80 84 149 179 206 287 21 39 44 78 51
86 16 19 140 275 151 311 4 14 20 48 35 75 15 28 38 79 50 115 13 36 35 90 50
120 16 30 45 104 65 164 20 60 43 119 51 130 7 12 25 66 40 121 14 55 37 120
50 145 13 25 33 81 44 125 12 44 34 108 50 142 16 35 41 101 55 147 14 46 43
117 65 159 22 42 40 82 40 91 0 15 40 108 60 136 5 8 26 49 45 90 54 117 127
251 157 290 15 20 33 49 40 66 17 38 86 135 166 231 34 41 62 78 62 82 0 4 32
40 71 80 87 87 240 211 300 241 24 12 51 29 60 36 9 8 53 25 98 39 132 39 343
36 466 -8 106 -38 267 -152 394 -278 112 -112 311 -362 327 -411 4 -13 18 -37
31 -54 35 -46 103 -172 201 -369 13 -27 30 -57 37 -65 6 -8 18 -37 25 -65 7
-27 30 -84 51 -125 21 -41 50 -113 65 -160 15 -47 39 -110 54 -140 15 -30 37
-92 49 -138 11 -46 32 -105 46 -131 13 -27 33 -83 44 -125 11 -42 36 -116 56
-164 20 -48 45 -114 55 -147 9 -33 36 -99 59 -146 22 -48 41 -94 41 -102 0 -8
20 -55 45 -103 25 -49 45 -93 45 -97 0 -16 133 -282 162 -325 16 -23 36 -58
44 -77 28 -68 127 -203 221 -301 71 -75 100 -75 203 1 99 74 202 176 253 250
22 33 51 71 64 84 13 13 23 29 23 35 0 6 16 36 36 66 34 51 84 150 84 165 0 4
18 45 40 92 22 47 47 116 55 155 8 38 26 98 39 131 35 93 35 90 56 226 11 69
34 196 50 281 28 149 46 293 72 580 7 88 12 386 13 850 1 696 2 718 23 825 13
61 33 175 46 255 13 80 33 172 45 204 11 33 32 114 46 180 13 67 41 171 60
231 19 61 49 164 66 230 17 66 35 125 39 130 12 18 39 99 59 184 12 46 30 98
40 115 10 17 29 65 41 106 12 41 39 116 60 165 21 50 48 119 60 155 12 36 36
97 54 135 18 39 36 84 40 100 4 17 25 67 47 111 21 45 39 86 39 92 0 6 22 57
48 114 27 57 55 126 62 153 7 28 30 86 50 130 20 44 42 107 49 140 13 64 23
94 52 162 22 50 73 300 89 438 6 55 10 168 8 250 -4 158 -54 591 -89 775 -11
58 -35 191 -53 296 -18 104 -42 211 -54 236 -11 25 -30 90 -42 144 -13 55 -34
124 -47 154 -14 30 -40 95 -59 144 -19 49 -45 101 -58 117 -13 15 -32 49 -42
75 -25 65 -134 232 -191 294 -13 14 -49 55 -81 91 -57 66 -181 178 -237 213
-16 11 -52 38 -80 60 -69 56 -229 130 -350 162 -55 15 -122 33 -150 40 -82 23
-209 34 -396 34 -238 0 -392 -16 -609 -64 -36 -8 -96 -18 -135 -21 -38 -4
-137 -24 -220 -45 -82 -21 -212 -53 -289 -70 -76 -17 -166 -42 -201 -55 -34
-13 -102 -31 -151 -40 -49 -9 -127 -29 -174 -45 -47 -15 -153 -39 -235 -51
-135 -21 -183 -23 -475 -23 -366 1 -516 17 -689 73 -51 17 -131 37 -179 46
-85 16 -244 62 -310 91 -17 7 -41 28 -52 46 -18 30 -20 51 -20 241 0 227 7
261 56 273 32 8 91 -1 174 -27 36 -12 97 -29 135 -39 39 -10 93 -25 120 -33
28 -9 91 -23 140 -32 50 -10 110 -24 135 -32 114 -39 166 -45 432 -50 296 -6
412 3 535 41 43 14 116 32 163 41 47 9 130 29 185 45 55 16 168 45 250 64 83
20 184 47 225 61 41 14 140 36 220 50 80 13 168 31 195 39 64 19 225 42 390
55 72 6 148 13 170 15 88 9 507 -4 625 -19z m-5857 -36 c39 -30 46 -75 44
-281 l-2 -186 -31 -44 c-35 -49 -77 -73 -151 -88 -62 -11 -229 -97 -293 -150
-25 -21 -59 -45 -77 -54 -17 -9 -38 -24 -45 -34 -7 -10 -23 -25 -36 -34 -75
-51 -276 -283 -332 -380 -17 -32 -36 -61 -41 -64 -6 -3 -21 -31 -35 -62 -14
-31 -38 -77 -54 -102 -16 -25 -38 -76 -51 -115 -12 -38 -32 -90 -45 -115 -25
-51 -104 -130 -131 -131 -224 -7 -393 -4 -421 7 -55 22 -69 103 -30 184 12 25
27 59 33 75 70 175 102 249 149 347 30 64 59 119 65 123 6 3 25 34 43 68 17
34 39 73 50 87 53 68 122 161 157 210 42 61 272 288 354 350 28 21 70 53 92
70 95 73 206 139 310 185 33 14 67 32 75 40 9 8 61 26 115 41 55 14 111 34
125 44 35 24 49 28 96 29 27 1 50 -6 67 -20z"/>
</g>
</svg>
